0
SECTION
2
HEADER
9
$INSUNITS
70
4
9
$ACADVER
1
AC1014
9
$HANDSEED
5
FFFF
0
ENDSEC
0
SECTION
2
TABLES
0
TABLE
2
VPORT
5
8
100
AcDbSymbolTable
0
ENDTAB
0
TABLE
2
LTYPE
5
5
100
AcDbSymbolTable
0
LTYPE
5
14
100
AcDbSymbolTableRecord
100
AcDbLinetypeTableRecord
2
BYBLOCK
70
0
0
LTYPE
5
15
100
AcDbSymbolTableRecord
100
AcDbLinetypeTableRecord
2
BYLAYER
70
0
0
ENDTAB
0
TABLE
2
LAYER
5
2
100
AcDbSymbolTable
70
2
0
LAYER
5
50
100
AcDbSymbolTableRecord
100
AcDbLayerTableRecord
2
0
70
0
6
CONTINUOUS
0
ENDTAB
0
TABLE
2
STYLE
5
3
100
AcDbSymbolTable
70
1
0
STYLE
5
11
100
AcDbSymbolTableRecord
100
AcDbTextStyleTableRecord
2
STANDARD
70
0
0
ENDTAB
0
TABLE
2
VIEW
5
6
100
AcDbSymbolTable
70
0
0
ENDTAB
0
TABLE
2
UCS
5
7
100
AcDbSymbolTable
70
0
0
ENDTAB
0
TABLE
2
APPID
5
9
100
AcDbSymbolTable
70
2
0
APPID
5
12
100
AcDbSymbolTableRecord
100
AcDbRegAppTableRecord
2
ACAD
70
0
0
ENDTAB
0
TABLE
2
DIMSTYLE
5
A
100
AcDbSymbolTable
70
1
0
ENDTAB
0
TABLE
2
BLOCK_RECORD
5
1
100
AcDbSymbolTable
70
1
0
BLOCK_RECORD
5
1F
100
AcDbSymbolTableRecord
100
AcDbBlockTableRecord
2
*MODEL_SPACE
0
BLOCK_RECORD
5
1B
100
AcDbSymbolTableRecord
100
AcDbBlockTableRecord
2
*PAPER_SPACE
0
ENDTAB
0
ENDSEC
0
SECTION
2
BLOCKS
0
BLOCK
5
20
100
AcDbEntity
100
AcDbBlockBegin
2
*MODEL_SPACE
0
ENDBLK
5
21
100
AcDbEntity
100
AcDbBlockEnd
0
BLOCK
5
1C
100
AcDbEntity
100
AcDbBlockBegin
2
*PAPER_SPACE
0
ENDBLK
5
1D
100
AcDbEntity
100
AcDbBlockEnd
0
ENDSEC
0
SECTION
2
ENTITIES
0
LWPOLYLINE
5
100
100
AcDbEntity
8
0
100
AcDbPolyline
90
32
70
1
43
0.0
10
226.23953
20
57.012540999999999
10
227.43312000000003
20
45.172781000000001
10
230.85633000000001
20
34.145119000000001
10
236.27304000000004
20
24.165759000000001
10
243.44681000000003
20
15.471140999999999
10
252.14143000000004
20
8.2974688000000008
10
262.12067999999999
20
2.8808688000000005
10
273.14835000000005
20
-0.54234062999999999
10
284.98809999999997
20
-1.7359405999999999
10
296.82826
20
-0.54234062999999999
10
307.85602999999998
20
2.8808688
10
317.83537999999999
20
8.2974688000000008
10
326.5299
20
15.471140999999999
10
333.70347000000004
20
24.165759000000001
10
339.11997000000008
20
34.145119000000001
10
342.54308000000003
20
45.172781000000001
10
343.73657000000003
20
57.012540999999999
10
341.21760999999998
20
70.830440999999993
10
334.57560999999998
20
87.069781000000006
10
325.18279000000001
20
104.41087000000002
10
314.41156000000001
20
121.53402
10
303.63414
20
137.11966000000001
10
294.22293000000002
20
149.84811000000002
10
287.55015000000003
20
158.39977999999999
10
284.98809999999997
20
161.45500000000001
10
282.42543999999998
20
158.19383999999999
10
275.75236000000007
20
149.54554999999999
10
266.34115000000003
20
136.80450000000002
10
255.56383
20
121.26509
10
244.79280000000003
20
104.22169
10
235.40029000000004
20
86.968890999999999
10
228.75838999999999
20
70.801081000000011
0
LWPOLYLINE
5
101
100
AcDbEntity
8
0
100
AcDbPolyline
90
4
70
1
43
0.0
10
246.16560000000004
20
37.705941000000003
10
248.02032
20
34.737772
10
248.86836000000002
20
35.267690999999999
10
247.01365000000004
20
38.235858999999998
0
LWPOLYLINE
5
102
100
AcDbEntity
8
0
100
AcDbPolyline
90
4
70
1
43
0.0
10
241.29459
20
34.367403000000003
10
242.88435000000004
20
31.823259000000004
10
243.56279000000001
20
32.247197
10
241.97303000000002
20
34.791341000000003
0
LWPOLYLINE
5
103
100
AcDbEntity
8
0
100
AcDbPolyline
90
4
70
1
43
0.0
10
246.03241
20
30.370769000000003
10
246.45634000000001
20
29.692328000000003
10
249.00049000000001
20
31.282088000000002
10
248.57655
20
31.960525000000004
0
ENDSEC
0
SECTION
2
OBJECTS
0
DICTIONARY
5
C
100
AcDbDictionary
3
ACAD_GROUP
350
D
3
ACAD_MLINESTYLE
350
17
0
DICTIONARY
5
D
100
AcDbDictionary
0
DICTIONARY
5
1A
330
C
100
AcDbDictionary
0
DICTIONARY
5
17
100
AcDbDictionary
0
ENDSEC
0
EOF
