0
SECTION
2
HEADER
9
$INSUNITS
70
4
9
$ACADVER
1
AC1014
9
$HANDSEED
5
FFFF
0
ENDSEC
0
SECTION
2
TABLES
0
TABLE
2
VPORT
5
8
100
AcDbSymbolTable
0
ENDTAB
0
TABLE
2
LTYPE
5
5
100
AcDbSymbolTable
0
LTYPE
5
14
100
AcDbSymbolTableRecord
100
AcDbLinetypeTableRecord
2
BYBLOCK
70
0
0
LTYPE
5
15
100
AcDbSymbolTableRecord
100
AcDbLinetypeTableRecord
2
BYLAYER
70
0
0
ENDTAB
0
TABLE
2
LAYER
5
2
100
AcDbSymbolTable
70
2
0
LAYER
5
50
100
AcDbSymbolTableRecord
100
AcDbLayerTableRecord
2
0
70
0
6
CONTINUOUS
0
ENDTAB
0
TABLE
2
STYLE
5
3
100
AcDbSymbolTable
70
1
0
STYLE
5
11
100
AcDbSymbolTableRecord
100
AcDbTextStyleTableRecord
2
STANDARD
70
0
0
ENDTAB
0
TABLE
2
VIEW
5
6
100
AcDbSymbolTable
70
0
0
ENDTAB
0
TABLE
2
UCS
5
7
100
AcDbSymbolTable
70
0
0
ENDTAB
0
TABLE
2
APPID
5
9
100
AcDbSymbolTable
70
2
0
APPID
5
12
100
AcDbSymbolTableRecord
100
AcDbRegAppTableRecord
2
ACAD
70
0
0
ENDTAB
0
TABLE
2
DIMSTYLE
5
A
100
AcDbSymbolTable
70
1
0
ENDTAB
0
TABLE
2
BLOCK_RECORD
5
1
100
AcDbSymbolTable
70
1
0
BLOCK_RECORD
5
1F
100
AcDbSymbolTableRecord
100
AcDbBlockTableRecord
2
*MODEL_SPACE
0
BLOCK_RECORD
5
1B
100
AcDbSymbolTableRecord
100
AcDbBlockTableRecord
2
*PAPER_SPACE
0
ENDTAB
0
ENDSEC
0
SECTION
2
BLOCKS
0
BLOCK
5
20
100
AcDbEntity
100
AcDbBlockBegin
2
*MODEL_SPACE
0
ENDBLK
5
21
100
AcDbEntity
100
AcDbBlockEnd
0
BLOCK
5
1C
100
AcDbEntity
100
AcDbBlockBegin
2
*PAPER_SPACE
0
ENDBLK
5
1D
100
AcDbEntity
100
AcDbBlockEnd
0
ENDSEC
0
SECTION
2
ENTITIES
0
LWPOLYLINE
5
100
100
AcDbEntity
8
0
100
AcDbPolyline
90
167
70
1
43
0.0
10
-97.858359000000007
20
103.29038
10
-97.688740999999993
20
103.07195
10
-97.289091000000013
20
102.99141
10
-96.687819000000005
20
102.97994000000001
10
-89.344099999999997
20
103.03088000000001
10
-88.752959000000004
20
103.03541000000001
10
-88.316500000000019
20
102.943
10
-88.011800000000008
20
102.65216000000001
10
-87.816440999999998
20
102.06102000000001
10
-87.707631000000021
20
101.06797
10
-87.662691000000009
20
99.57150900000002
10
-87.659091000000004
20
97.469780999999998
10
-87.673891000000012
20
94.661299999999997
10
-87.705230999999998
20
60.405949999999997
10
-87.642150000000001
20
57.570259000000007
10
-87.231568999999993
20
55.436659000000006
10
-86.127159000000006
20
53.905269000000004
10
-83.982900000000015
20
52.875940999999997
10
-80.452190999999999
20
52.248258999999997
10
-75.188731000000004
20
51.922491000000008
10
-67.846480999999997
20
51.798209
10
-58.078991000000002
20
51.775400000000005
10
60.268069000000004
20
51.759669000000002
10
70.044218999999998
20
51.7746
10
77.396468999999996
20
51.882081000000007
10
82.671000000000006
20
52.174790999999999
10
86.21330900000001
20
52.745131000000001
10
88.369180999999998
20
53.685909000000009
10
89.484650000000002
20
55.089691000000009
10
89.905241000000004
20
57.049131000000003
10
89.976980999999995
20
59.656659000000005
10
89.999118999999993
20
91.149930999999995
10
89.996050000000011
20
93.711309
10
90.002049999999997
20
95.616619000000014
10
90.027249999999995
20
96.960919000000004
10
90.081790999999996
20
97.839831000000004
10
90.175668999999999
20
98.34815900000001
10
90.319291000000007
20
98.581391000000011
10
90.522781000000009
20
98.634591
10
90.796009000000012
20
98.603258999999994
10
91.552909
20
98.53925000000001
10
92.470890999999995
20
98.511109000000019
10
93.391008999999997
20
98.512581000000011
10
94.154168999999996
20
98.537780999999995
10
94.434068999999994
20
98.55911900000001
10
94.655958999999996
20
98.594859000000014
10
94.840919000000014
20
98.655000000000001
10
95.009868999999995
20
98.749540999999994
10
95.383791000000002
20
99.082250000000016
10
95.793190999999993
20
99.139718999999999
10
99.645041000000006
20
103.17935
10
99.859013000000019
20
103.66806
10
100.14149000000002
20
104.10804
10
100.58228
20
105.21622000000001
10
99.008409
20
107.29055000000001
10
98.672291000000016
20
107.64959000000002
10
97.796806000000004
20
108.45845
10
97.409428000000005
20
108.84884
10
95.481722000000019
20
110.79552
10
90.088616000000016
20
116.31002000000001
10
88.451196999999993
20
117.85293000000001
10
84.245816000000019
20
122.03427000000002
10
81.954509000000002
20
124.38471
10
77.867712999999995
20
128.37478999999999
10
68.786106000000004
20
137.50583
10
64.296994000000012
20
142.02785
10
60.05846300000001
20
146.29517999999999
10
57.377972
20
149.00962999999999
10
54.689481000000001
20
151.65155999999999
10
52.122078000000009
20
154.17841000000004
10
50.429269000000005
20
155.96836999999999
10
47.438922000000005
20
157.36776
10
45.695371999999999
20
156.23840000000001
10
44.618780999999998
20
155.36474999999999
10
43.530641000000003
20
154.33861999999999
10
31.047350000000002
20
142.18337
10
29.267259000000003
20
140.44995
10
28.337809000000004
20
139.55184
10
27.943359000000001
20
139.19085999999999
10
27.768800000000002
20
139.06858
10
26.818819000000005
20
138.48877999999999
10
26.714541000000001
20
138.43996999999999
10
26.481180999999999
20
138.4033
10
25.966981000000004
20
138.37702999999999
10
25.020331000000002
20
138.35928999999999
10
23.489740999999999
20
138.34849
10
21.223191
20
138.34289000000001
10
18.069330999999998
20
138.34048999999999
10
13.876269000000001
20
138.33982
10
-36.931550000000009
20
138.33462
10
-41.124209
20
138.33796000000001
10
-44.2746
20
138.36329000000001
10
-46.531681000000006
20
138.43277
10
-48.044000000000004
20
138.56839000000002
10
-48.960250000000009
20
138.79201
10
-49.428981000000007
20
139.12578999999999
10
-49.599131000000007
20
139.59171000000001
10
-49.619131000000003
20
140.21165999999999
10
-49.562591000000005
20
147.72472999999999
10
-49.550058999999997
20
148.81073000000001
10
-49.515518999999998
20
149.36814000000001
10
-49.48125000000001
20
149.50349
10
-49.431381000000002
20
149.57268999999999
10
-49.362169000000009
20
149.5975
10
-49.270291
20
149.60015999999999
10
-48.157350000000001
20
149.58856
10
-48.065469000000007
20
149.58922999999999
10
-47.996530999999997
20
149.59962999999999
10
-47.947059000000003
20
149.62950000000001
10
-47.913991000000003
20
149.68817999999999
10
-47.883719000000006
20
149.93047000000001
10
-47.879849999999998
20
150.40306000000001
10
-47.883050000000004
20
153.67334
10
-47.889449999999997
20
153.94324
10
-47.932259000000002
20
154.14619999999999
10
-48.048141000000008
20
154.29155000000003
10
-48.273769000000009
20
154.38890000000001
10
-48.645409000000008
20
154.44810000000001
10
-49.199881000000005
20
154.47837000000001
10
-49.973708999999999
20
154.48957999999999
10
-51.003441000000009
20
154.49118000000001
10
-63.482331000000009
20
154.49158
10
-64.512200000000007
20
154.48998
10
-65.286030999999994
20
154.47877
10
-65.84050000000002
20
154.44837000000001
10
-66.212008999999995
20
154.38929999999999
10
-66.437100000000001
20
154.29168000000001
10
-66.552449999999993
20
154.14619999999999
10
-66.594318999999999
20
153.94310999999999
10
-66.599519000000001
20
153.67294000000001
10
-66.589118999999997
20
150.39905999999999
10
-66.582718999999997
20
149.92581000000001
10
-66.546850000000006
20
149.68097
10
-66.508308999999997
20
149.6199
10
-66.451109000000002
20
149.58655999999999
10
-66.371230999999995
20
149.57123000000001
10
-66.265080999999995
20
149.56403
10
-64.97945
20
149.49695
10
-64.873441
20
149.48775000000001
10
-64.793959000000001
20
149.45828
10
-64.737419000000003
20
149.38640000000001
10
-64.700091
20
149.25024999999999
10
-64.668750000000003
20
148.69738000000001
10
-64.671149999999997
20
147.62405000000001
10
-64.723691000000002
20
140.19952000000001
10
-64.730759000000006
20
139.58690999999999
10
-64.752630999999994
20
139.12631999999999
10
-64.805300000000003
20
138.79628
10
-64.905050000000003
20
138.57464999999999
10
-65.067731000000009
20
138.43984
10
-65.309500000000014
20
138.36995999999999
10
-65.646341000000007
20
138.34302000000002
10
-66.094391000000002
20
138.33742000000001
10
-71.524669000000003
20
138.31369000000001
10
-71.981131000000005
20
138.30035000000004
10
-72.376380999999995
20
138.21848
10
-72.776431000000002
20
137.99897999999999
10
-73.247150000000005
20
137.57279
10
-73.854558999999995
20
136.87083999999999
10
-74.664800000000014
20
135.82404
10
-75.743869000000004
20
134.36346
10
-77.157640999999998
20
132.41988000000001
10
-94.259249999999994
20
108.86774000000001
10
-95.666891000000021
20
106.92430000000002
10
-96.70209100000001
20
105.46385000000001
10
-97.393508999999995
20
104.41745
10
-97.769418999999999
20
103.7159
0
LWPOLYLINE
5
101
100
AcDbEntity
8
0
100
AcDbPolyline
90
4
70
1
43
0.0
10
-60.825994000000001
20
139.3811
10
-60.025994000000004
20
139.3811
10
-60.025994000000004
20
142.3811
10
-60.825994000000001
20
142.3811
0
LWPOLYLINE
5
102
100
AcDbEntity
8
0
100
AcDbPolyline
90
4
70
1
43
0.0
10
-57.375994000000006
20
137.3811
10
-53.875993999999999
20
137.3811
10
-53.875993999999999
20
138.3811
10
-57.375994000000006
20
138.3811
0
LWPOLYLINE
5
103
100
AcDbEntity
8
0
100
AcDbPolyline
90
4
70
1
43
0.0
10
-57.125994000000006
20
143.4811
10
-54.125994000000006
20
143.4811
10
-54.125994000000006
20
144.28110000000001
10
-57.125994000000006
20
144.28110000000001
0
ENDSEC
0
SECTION
2
OBJECTS
0
DICTIONARY
5
C
100
AcDbDictionary
3
ACAD_GROUP
350
D
3
ACAD_MLINESTYLE
350
17
0
DICTIONARY
5
D
100
AcDbDictionary
0
DICTIONARY
5
1A
330
C
100
AcDbDictionary
0
DICTIONARY
5
17
100
AcDbDictionary
0
ENDSEC
0
EOF
