0
SECTION
2
HEADER
9
$INSUNITS
70
4
9
$ACADVER
1
AC1014
9
$HANDSEED
5
FFFF
0
ENDSEC
0
SECTION
2
TABLES
0
TABLE
2
VPORT
5
8
100
AcDbSymbolTable
0
ENDTAB
0
TABLE
2
LTYPE
5
5
100
AcDbSymbolTable
0
LTYPE
5
14
100
AcDbSymbolTableRecord
100
AcDbLinetypeTableRecord
2
BYBLOCK
70
0
0
LTYPE
5
15
100
AcDbSymbolTableRecord
100
AcDbLinetypeTableRecord
2
BYLAYER
70
0
0
ENDTAB
0
TABLE
2
LAYER
5
2
100
AcDbSymbolTable
70
2
0
LAYER
5
50
100
AcDbSymbolTableRecord
100
AcDbLayerTableRecord
2
0
70
0
6
CONTINUOUS
0
ENDTAB
0
TABLE
2
STYLE
5
3
100
AcDbSymbolTable
70
1
0
STYLE
5
11
100
AcDbSymbolTableRecord
100
AcDbTextStyleTableRecord
2
STANDARD
70
0
0
ENDTAB
0
TABLE
2
VIEW
5
6
100
AcDbSymbolTable
70
0
0
ENDTAB
0
TABLE
2
UCS
5
7
100
AcDbSymbolTable
70
0
0
ENDTAB
0
TABLE
2
APPID
5
9
100
AcDbSymbolTable
70
2
0
APPID
5
12
100
AcDbSymbolTableRecord
100
AcDbRegAppTableRecord
2
ACAD
70
0
0
ENDTAB
0
TABLE
2
DIMSTYLE
5
A
100
AcDbSymbolTable
70
1
0
ENDTAB
0
TABLE
2
BLOCK_RECORD
5
1
100
AcDbSymbolTable
70
1
0
BLOCK_RECORD
5
1F
100
AcDbSymbolTableRecord
100
AcDbBlockTableRecord
2
*MODEL_SPACE
0
BLOCK_RECORD
5
1B
100
AcDbSymbolTableRecord
100
AcDbBlockTableRecord
2
*PAPER_SPACE
0
ENDTAB
0
ENDSEC
0
SECTION
2
BLOCKS
0
BLOCK
5
20
100
AcDbEntity
100
AcDbBlockBegin
2
*MODEL_SPACE
0
ENDBLK
5
21
100
AcDbEntity
100
AcDbBlockEnd
0
BLOCK
5
1C
100
AcDbEntity
100
AcDbBlockBegin
2
*PAPER_SPACE
0
ENDBLK
5
1D
100
AcDbEntity
100
AcDbBlockEnd
0
ENDSEC
0
SECTION
2
ENTITIES
0
LWPOLYLINE
5
100
100
AcDbEntity
8
0
100
AcDbPolyline
90
675
70
1
43
0.0
10
-177.41514000000001
20
29.511749999999999
10
-177.40772000000004
20
28.784091000000004
10
-177.36556000000002
20
28.144319000000003
10
-177.1652
20
27.277159000000001
10
-176.99716000000001
20
26.739491000000001
10
-176.78055000000001
20
26.209240999999999
10
-176.70516000000003
20
26.061719
10
-176.61707000000004
20
25.913591
10
-176.51344
20
25.770131000000003
10
-176.39132000000001
20
25.636219000000004
10
-176.24857000000003
20
25.514909000000003
10
-176.08662000000004
20
25.401119000000001
10
-175.90728999999999
20
25.287731000000004
10
-175.71273000000002
20
25.167641
10
-174.85512
20
24.615141000000005
10
-174.0283
20
24.137419000000001
10
-173.19254000000001
20
23.755400000000005
10
-172.3518
20
23.525781000000002
10
-171.2405
20
23.410668999999999
10
-167.39921000000004
20
23.359869
10
-157.33278000000001
20
23.331319000000001
10
-154.87558999999999
20
23.325841
10
-108.99445
20
23.325841
10
-64.314119000000005
20
23.340159000000003
10
-60.576359000000004
20
23.346259000000003
10
-57.419541000000009
20
23.354281
10
-54.784241000000009
20
23.364550000000005
10
-52.611319000000009
20
23.377650000000003
10
-50.841450000000002
20
23.394009000000004
10
-49.415291000000003
20
23.414131000000001
10
-48.273819000000003
20
23.438509
10
-47.357491000000003
20
23.467569000000005
10
-46.613369000000006
20
23.502009000000005
10
-46.013008999999997
20
23.542649999999998
10
-45.534069000000002
20
23.590809
10
-45.154391000000004
20
23.647300000000001
10
-44.851731000000001
20
23.713341
10
-44.603718999999998
20
23.790050000000001
10
-44.388230999999998
20
23.878540999999998
10
-44.182890999999998
20
23.979731000000001
10
-43.747841000000001
20
24.221541000000002
10
-43.290241000000009
20
24.507341
10
-42.835980999999997
20
24.825759000000005
10
-42.410581000000001
20
25.165409000000004
10
-42.216118999999999
20
25.340159
10
-42.034559000000009
20
25.518968999999998
10
-41.865091000000007
20
25.703681
10
-41.707000000000001
20
25.896009000000003
10
-41.559581000000001
20
26.097591000000001
10
-41.421908999999999
20
26.310031000000002
10
-41.293391
20
26.535181000000001
10
-41.173200000000001
20
26.774750000000004
10
-41.060930999999997
20
27.030381000000002
10
-40.957800000000006
20
27.304291000000003
10
-40.865350000000007
20
27.598831000000001
10
-40.785191000000005
20
27.916018999999999
10
-40.718840999999998
20
28.258209000000001
10
-40.667841000000003
20
28.627531000000005
10
-40.633800000000008
20
29.026309000000001
10
-40.618358999999998
20
29.456790999999999
10
-40.622219000000001
20
29.919568999999999
10
-40.643450000000001
20
30.409790999999998
10
-40.67921900000001
20
30.920841000000003
10
-40.726769000000004
20
31.446219000000003
10
-40.783358999999997
20
31.979309000000001
10
-40.846249999999998
20
32.513831000000003
10
-40.912591000000006
20
33.043059
10
-40.979650000000007
20
33.560608999999999
10
-41.502080999999997
20
37.567408999999998
10
-41.574919000000001
20
38.138908999999998
10
-41.651730999999998
20
38.739668999999999
10
-41.733519000000001
20
39.369090999999997
10
-41.820999999999998
20
40.026341000000009
10
-41.915180999999997
20
40.710918999999997
10
-42.016680999999998
20
41.421908999999999
10
-42.126609000000002
20
42.158718999999998
10
-42.245691000000001
20
42.920718999999998
10
-42.374518999999999
20
43.705880999999998
10
-42.512891000000003
20
44.507300000000001
10
-42.660209000000002
20
45.317050000000009
10
-42.815969000000003
20
46.127009000000001
10
-42.979849999999999
20
46.929040999999998
10
-43.151150000000001
20
47.715218999999998
10
-43.329349999999998
20
48.477418999999998
10
-43.514059000000003
20
49.207518999999998
10
-43.704559000000003
20
49.898909000000003
10
-43.899531000000003
20
50.550569000000003
10
-44.097650000000002
20
51.163018999999998
10
-44.29740000000001
20
51.736550000000001
10
-44.497549999999997
20
52.271681000000001
10
-44.696480999999999
20
52.768799999999999
10
-44.892980999999999
20
53.228341000000007
10
-45.085509000000002
20
53.650691000000002
10
-45.27336900000001
20
54.037180999999997
10
-45.458790999999998
20
54.392069000000006
10
-45.644609000000003
20
54.720641000000008
10
-45.833791000000005
20
55.028191
10
-46.029069
20
55.319780999999999
10
-46.233381000000008
20
55.6008
10
-46.449691000000001
20
55.876241
10
-46.680731000000002
20
56.151480999999997
10
-47.193709000000005
20
56.713419000000009
10
-47.769781000000002
20
57.285231000000003
10
-48.401731000000005
20
57.857030999999999
10
-49.081741000000001
20
58.418680999999999
10
-49.437649999999998
20
58.692691000000003
10
-49.804019000000004
20
58.961119000000004
10
-50.181049999999999
20
59.223550000000003
10
-50.569059000000003
20
59.479481000000007
10
-50.968350000000001
20
59.728300000000004
10
-51.379019
20
59.969499999999996
10
-51.801469000000004
20
60.202669
10
-52.23600900000001
20
60.427208999999998
10
-52.682141000000009
20
60.642600000000009
10
-53.137509000000009
20
60.848441000000008
10
-53.598880999999999
20
61.04443100000001
10
-54.063091000000007
20
61.230150000000009
10
-54.527200000000001
20
61.40510900000001
10
-54.988050000000008
20
61.569091
10
-55.442408999999998
20
61.721591000000004
10
-55.887208999999999
20
61.86230900000001
10
-56.323380999999998
20
61.991541000000005
10
-56.767481000000004
20
62.11335900000001
10
-57.240319
20
62.232241000000002
10
-57.762340999999999
20
62.353141000000001
10
-58.354469000000009
20
62.480550000000008
10
-59.037119000000004
20
62.619331000000003
10
-59.831119000000008
20
62.774068999999997
10
-60.757000000000005
20
62.949531000000007
10
-70.816719000000006
20
64.783208999999999
10
-71.926699999999997
20
64.984881000000001
10
-72.932440999999997
20
65.168780999999996
10
-73.840850000000003
20
65.336831000000018
10
-74.658831000000006
20
65.490750000000006
10
-75.393191000000002
20
65.632281000000006
10
-76.050849999999997
20
65.763340999999997
10
-76.638808999999995
20
65.885569000000004
10
-77.163881000000003
20
66.000881000000007
10
-78.052981000000003
20
66.216581000000019
10
-78.773218999999997
20
66.419168999999997
10
-79.379780999999994
20
66.616168999999999
10
-79.927600000000012
20
66.815109000000007
10
-80.459481000000011
20
67.024809000000005
10
-80.969209000000006
20
67.260109
10
-81.210099999999997
20
67.392399999999995
10
-81.438500000000005
20
67.537081000000001
10
-81.652158999999997
20
67.696280999999999
10
-81.848759000000001
20
67.871849999999995
10
-82.027058999999994
20
68.0655
10
-82.189730999999995
20
68.277130999999997
10
-82.340908999999996
20
68.506440999999995
10
-82.484159000000005
20
68.753018999999995
10
-82.762749999999997
20
69.296581000000003
10
-83.056481000000005
20
69.904459000000003
10
-83.389419000000004
20
70.569331000000005
10
-83.759649999999993
20
71.266099999999994
10
-84.158331000000004
20
71.965619000000004
10
-84.576919000000004
20
72.638309000000007
10
-85.006990999999999
20
73.262030999999993
10
-85.441231000000002
20
73.842369000000019
10
-85.872731000000016
20
74.391931
10
-86.294369000000003
20
74.923191000000003
10
-87.937141000000011
20
77.028949999999995
10
-88.38489100000001
20
77.56681900000001
10
-88.842391000000006
20
78.083558999999994
10
-89.069058999999996
20
78.323849999999993
10
-89.291158999999993
20
78.546759000000009
10
-89.506649999999993
20
78.748231000000004
10
-89.713100000000011
20
78.924199999999999
10
-90.082219000000009
20
79.202081000000007
10
-90.342719000000002
20
79.440431000000004
10
-90.412419000000014
20
79.56935900000002
10
-90.431208999999996
20
79.717799999999997
10
-90.391081
20
79.895600000000002
10
-90.284199999999998
20
80.112718999999998
10
-90.105891000000014
20
80.375958999999995
10
-89.86490000000002
20
80.681168999999997
10
-89.573300000000003
20
81.021118999999999
10
-89.243099999999998
20
81.388809000000009
10
-88.515341000000006
20
82.178449999999998
10
-87.778030999999999
20
82.993280999999996
10
-87.433709000000007
20
83.393691000000004
10
-87.109909000000002
20
83.786980999999997
10
-86.805519000000004
20
84.174281000000008
10
-86.519209000000004
20
84.556400000000011
10
-86.249968999999993
20
84.934449999999998
10
-85.996481000000017
20
85.309349999999995
10
-85.757509000000013
20
85.682018999999997
10
-85.532059000000004
20
86.053369000000004
10
-85.318900000000014
20
86.424308999999994
10
-85.117641000000006
20
86.795249999999996
10
-84.928050000000013
20
87.166090999999994
10
-84.749841000000004
20
87.537240999999995
10
-84.426249999999996
20
88.280749999999998
10
-84.144508999999999
20
89.027100000000004
10
-83.902500000000003
20
89.774368999999993
10
-83.698691000000011
20
90.508330999999998
10
-83.531959000000015
20
91.211500000000001
10
-83.400900000000007
20
91.866418999999993
10
-83.300619000000012
20
92.456609000000014
10
-83.211108999999993
20
92.969791000000001
10
-83.163158999999993
20
93.194019000000011
10
-83.109000000000009
20
93.39468100000002
10
-83.04580900000002
20
93.570550000000011
10
-82.970518999999996
20
93.720009000000019
10
-82.880808999999999
20
93.842841000000007
10
-82.776769000000016
20
93.942509000000015
10
-82.659019000000015
20
94.023791000000017
10
-82.528050000000007
20
94.091149999999999
10
-82.229150000000004
20
94.202708999999999
10
-81.885030999999998
20
94.314059
10
-81.500980999999996
20
94.457008999999999
10
-81.084119000000001
20
94.641919000000016
10
-80.642049999999998
20
94.874081000000018
10
-80.182309000000004
20
95.158659
10
-79.948131000000004
20
95.322141000000016
10
-79.712519
20
95.499531000000019
10
-79.476399999999998
20
95.69054100000001
10
-79.240791000000002
20
95.894750000000002
10
-79.006799999999998
20
96.11176900000001
10
-78.775358999999995
20
96.341081000000003
10
-78.547568999999996
20
96.582481000000016
10
-78.324459000000004
20
96.835369
10
-77.896619000000001
20
97.369480999999993
10
-77.502509000000003
20
97.917000000000002
10
-77.153308999999993
20
98.446440999999993
10
-76.859991000000008
20
98.9268
10
-76.627841000000004
20
99.341531000000018
10
-76.438759000000005
20
99.732900000000001
10
-76.268991
20
100.15809000000002
10
-76.094541000000007
20
100.67431999999999
10
-75.898650000000004
20
101.3207
10
-75.693419000000006
20
102.06441
10
-75.497840999999994
20
102.85496000000002
10
-75.331018999999998
20
103.64155
10
-75.208381000000003
20
104.38475
10
-75.130759000000012
20
105.09057
10
-75.095200000000006
20
105.77585999999999
10
-75.099058999999997
20
106.45780000000002
10
-75.139190999999997
20
107.14706
10
-75.211641
20
107.82808000000001
10
-75.312419000000006
20
108.47903000000001
10
-75.437590999999998
20
109.07796000000002
10
-75.583591000000013
20
109.60842
10
-75.749609000000007
20
110.07568000000001
10
-75.935541000000001
20
110.49061000000002
10
-76.141281000000006
20
110.86418999999999
10
-76.366831000000005
20
111.20547000000002
10
-76.613819000000007
20
111.51636000000002
10
-76.884169
20
111.79707999999999
10
-77.179930999999996
20
112.04763
10
-77.495500000000007
20
112.27135000000001
10
-77.796030999999999
20
112.48329
10
-77.927400000000006
20
112.59048
10
-78.039259000000001
20
112.70162999999999
10
-78.126131000000001
20
112.81898
10
-78.182930999999996
20
112.94466
10
-78.205381000000003
20
113.08131000000002
10
-78.19410000000002
20
113.23197999999999
10
-78.150619000000006
20
113.40013
10
-78.076758999999996
20
113.58890000000001
10
-77.844400000000007
20
114.04224000000001
10
-77.510340999999997
20
114.61862000000002
10
-77.309680999999998
20
114.96030000000002
10
-77.090731000000005
20
115.33642
10
-76.85745
20
115.74384000000002
10
-76.613508999999993
20
116.1795
10
-76.363068999999996
20
116.64046
10
-76.109680999999995
20
117.12345999999999
10
-75.857299999999995
20
117.62557000000001
10
-75.609809000000013
20
118.14373000000002
10
-75.370541000000003
20
118.67530000000001
10
-75.140818999999993
20
119.21968
10
-74.921569000000005
20
119.77665000000002
10
-74.713590999999994
20
120.34611
10
-74.517909000000003
20
120.92788
10
-74.335131000000004
20
121.52173000000002
10
-74.166369000000003
20
122.12757000000002
10
-74.012249999999995
20
122.74520000000001
10
-73.873559
20
123.37349000000002
10
-73.750119000000012
20
124.00736999999999
10
-73.641408999999996
20
124.64064
10
-73.547118999999995
20
125.26711
10
-73.466758999999996
20
125.88057000000001
10
-73.400008999999997
20
126.47513000000001
10
-73.346259000000003
20
127.04450000000001
10
-73.305308999999994
20
127.58257
10
-73.276658999999995
20
128.0857
10
-73.260309000000007
20
128.56007
10
-73.256241000000003
20
129.01421999999999
10
-73.264668999999998
20
129.45698999999999
10
-73.28540000000001
20
129.89681999999999
10
-73.318519000000009
20
130.34254000000001
10
-73.364141000000004
20
130.80268000000001
10
-73.422150000000002
20
131.286
10
-73.492358999999993
20
131.79836
10
-73.573841000000016
20
132.33471000000003
10
-73.664980999999997
20
132.88741999999999
10
-73.764650000000003
20
133.44855000000001
10
-73.871431000000001
20
134.0104
10
-73.983900000000006
20
134.56533999999999
10
-74.100841000000003
20
135.10543999999999
10
-74.220930999999993
20
135.62299999999999
10
-74.343259000000018
20
136.11250000000001
10
-74.469041000000004
20
136.57753
10
-74.600099999999998
20
137.02395999999999
10
-74.738080999999994
20
137.45728
10
-74.884791000000007
20
137.8836
10
-75.041959000000006
20
138.30859000000001
10
-75.211431000000005
20
138.73795000000001
10
-75.394818999999998
20
139.17757
10
-75.593350000000015
20
139.63162
10
-75.805790999999999
20
140.09755999999999
10
-76.030731000000003
20
140.57141999999999
10
-76.266141000000005
20
141.04915
10
-76.510591000000005
20
141.52656000000002
10
-76.762359000000004
20
141.99972
10
-77.019609000000003
20
142.46454
10
-77.280719000000005
20
142.91686000000001
10
-77.544369000000003
20
143.35364000000001
10
-77.810558999999998
20
143.77486999999999
10
-78.079599999999999
20
144.18158
10
-78.351681000000013
20
144.57487
10
-78.627431000000001
20
144.95567
10
-78.906831000000011
20
145.32508000000001
10
-79.190490999999994
20
145.68394000000001
10
-79.478531000000004
20
146.03344000000001
10
-80.070350000000005
20
146.70756
10
-80.690109000000007
20
147.35272000000003
10
-81.013300000000015
20
147.66585000000001
10
-81.34675
20
147.97338999999999
10
-81.691681000000003
20
148.27606
10
-82.049109000000001
20
148.57445999999999
10
-82.419749999999993
20
148.86878999999999
10
-82.802368999999999
20
149.15805
10
-83.195259000000007
20
149.44110000000001
10
-83.596780999999993
20
149.71664000000001
10
-84.005319000000014
20
149.98334
10
-84.419241
20
150.23998
10
-84.836708999999999
20
150.48535000000001
10
-85.256219000000016
20
150.71822
10
-85.675831000000002
20
150.93736999999999
10
-86.092691000000002
20
151.14259999999999
10
-86.503658999999999
20
151.33371
10
-86.905799999999999
20
151.51049
10
-87.295940999999999
20
151.67285000000001
10
-87.671049999999994
20
151.82068000000001
10
-88.027969000000013
20
151.95377000000002
10
-88.363759000000002
20
152.07193000000001
10
-88.967258999999999
20
152.26548000000003
10
-89.496491000000006
20
152.41179
10
-89.974219000000005
20
152.52385000000001
10
-90.423090999999999
20
152.61468000000002
10
-92.003169000000014
20
152.91571999999999
10
-92.289991000000015
20
152.9905
10
-92.537181000000004
20
153.07219000000001
10
-92.763850000000019
20
153.16534999999999
10
-92.988890999999995
20
153.27466999999999
10
-94.289880999999994
20
154.07996
10
-96.807531000000012
20
155.77251000000001
10
-97.166481000000005
20
155.99847
10
-97.532240999999999
20
156.22179
10
-97.909281000000007
20
156.44378
10
-98.302059000000014
20
156.66607999999999
10
-98.714968999999996
20
156.89021
10
-99.152249999999995
20
157.11749
10
-99.618600000000015
20
157.34943999999999
10
-100.11816000000002
20
157.58759000000001
10
-100.65339000000002
20
157.83255
10
-101.21849
20
158.08168000000001
10
-101.80533
20
158.33141000000001
10
-102.4062
20
158.57809
10
-103.01305000000001
20
158.81827999999999
10
-103.61788000000001
20
159.04840000000002
10
-104.21285
20
159.26500999999999
10
-104.78994
20
159.46435000000002
10
-105.34294000000001
20
159.64398
10
-105.87238000000001
20
159.80461
10
-106.38058000000001
20
159.94785999999999
10
-106.86979000000001
20
160.07568000000003
10
-107.34223
20
160.18947
10
-107.80014000000001
20
160.29116999999999
10
-108.24576
20
160.38230999999999
10
-108.68132000000001
20
160.46469999999999
10
-109.10946000000001
20
160.53968
10
-109.53384
20
160.60725000000002
10
-109.95863
20
160.66699
10
-110.38779
20
160.71850000000001
10
-110.82548000000001
20
160.76127
10
-111.27567000000001
20
160.79521
10
-111.74242
20
160.81969000000001
10
-112.22990000000001
20
160.83443
10
-112.74166000000001
20
160.83878999999999
10
-113.28014000000002
20
160.83158
10
-113.84707
20
160.81106000000003
10
-114.44448000000001
20
160.77590000000001
10
-115.07419
20
160.72460000000004
10
-115.73824999999999
20
160.65550999999999
10
-116.43848
20
160.56712000000002
10
-117.17680000000001
20
160.4581
10
-117.95354000000002
20
160.32714000000001
10
-118.76217
20
160.17464000000001
10
-119.59488
20
160.00120000000004
10
-120.44345
20
159.80754999999999
10
-121.29994000000002
20
159.59450000000001
10
-122.15631999999999
20
159.36265
10
-123.00458
20
159.11270999999999
10
-123.83658
20
158.84540000000001
10
-124.64603
20
158.56153
10
-125.43312
20
158.26181
10
-126.1996
20
157.94746000000001
10
-126.94717
20
157.61929000000003
10
-127.67757000000002
20
157.27832000000001
10
-128.39283
20
156.92546999999999
10
-129.09459000000001
20
156.56173999999999
10
-129.78455
20
156.18805000000003
10
-130.46395000000001
20
155.80573000000001
10
-131.13126
20
155.41660999999999
10
-131.78414000000001
20
155.02301
10
-132.42055999999999
20
154.62717000000001
10
-133.03829000000002
20
154.23124000000001
10
-133.63508999999999
20
153.83753999999999
10
-134.20862
20
153.44820999999999
10
-134.75695999999999
20
153.06558000000001
10
-135.27907999999999
20
152.69067999999999
10
-135.77976000000001
20
152.31984
10
-136.26510999999999
20
151.94828999999999
10
-136.74109999999999
20
151.57114999999999
10
-137.21385000000001
20
151.18375
10
-137.68954000000002
20
150.78130999999999
10
-138.17417
20
150.35885999999999
10
-138.67384000000001
20
149.91171000000003
10
-139.19281000000001
20
149.43683999999999
10
-139.72783999999999
20
148.93768
10
-140.27413999999999
20
148.41962000000001
10
-140.82674
20
147.88804999999999
10
-141.38057000000001
20
147.34814
10
-141.93082999999999
20
146.80540000000002
10
-142.47246000000001
20
146.26488000000001
10
-143.00058000000001
20
145.73209
10
-143.51080999999999
20
145.21180000000001
10
-144.00063
20
144.70675
10
-144.46808999999999
20
144.21917000000002
10
-144.91147000000001
20
143.75129999999999
10
-145.32874000000001
20
143.30557999999999
10
-145.71807000000001
20
142.88404
10
-146.07742999999999
20
142.48902000000001
10
-146.40509000000003
20
142.12286
10
-146.96002999999999
20
141.48166000000001
10
-147.37984
20
140.95649000000003
10
-147.53905
20
140.73490000000001
10
-147.66442000000001
20
140.53922
10
-147.75586000000001
20
140.36853000000002
10
-147.81337000000002
20
140.22172
10
-147.83725000000001
20
140.09726000000001
10
-147.82850999999999
20
139.99098000000001
10
-147.78868
20
139.89832000000001
10
-147.71929
20
139.81470999999999
10
-147.49708999999999
20
139.65591000000001
10
-147.17339000000004
20
139.47749999999999
10
-146.76312999999999
20
139.24970999999999
10
-146.29445000000001
20
138.97244000000001
10
-145.79884000000001
20
138.65290999999999
10
-145.30790999999999
20
138.29812000000001
10
-145.07342
20
138.10966000000002
10
-144.84746000000001
20
137.91397000000001
10
-144.62994000000003
20
137.71108000000001
10
-144.42023
20
137.50087000000002
10
-144.21795
20
137.28294
10
-144.02287999999999
20
137.05737999999999
10
-143.83440999999999
20
136.82391000000001
10
-143.65234000000001
20
136.58251000000001
10
-143.30547999999999
20
136.07390000000004
10
-142.97853000000001
20
135.52373
10
-142.66753
20
134.92317
10
-142.36873
20
134.26328000000001
10
-142.22282999999999
20
133.9085
10
-142.07937000000001
20
133.53664000000003
10
-141.93876
20
133.14771000000002
10
-141.80139
20
132.74203
10
-141.66748000000001
20
132.31926999999999
10
-141.53764000000001
20
131.87975
10
-141.41206
20
131.42346000000001
10
-141.29115999999999
20
130.95031
10
-141.17533000000003
20
130.45989
10
-141.06479000000002
20
129.94945000000001
10
-140.95964000000004
20
129.41553999999999
10
-140.86027000000001
20
128.85480999999999
10
-140.76670000000001
20
128.26390000000001
10
-140.67931999999999
20
127.63937
10
-140.59814
20
126.97795000000001
10
-140.52347
20
126.27630000000002
10
-140.4554
20
125.53269
10
-140.39341999999999
20
124.75210000000001
10
-140.33713
20
123.94123
10
-140.28583
20
123.10679
10
-140.23889
20
122.25548000000002
10
-140.19601
20
121.39412
10
-140.15648999999999
20
120.5292
10
-140.11971
20
119.66753
10
-139.91265000000001
20
114.03188
10
-139.88898
20
113.32859999999999
10
-139.89152000000001
20
112.89457
10
-139.90736999999999
20
112.74359000000001
10
-139.93561
20
112.61822000000001
10
-139.97798
20
112.50432000000002
10
-140.03659999999999
20
112.38809000000002
10
-140.20353
20
112.11367000000001
10
-140.41923
20
111.78713000000002
10
-140.65992
20
111.42116000000001
10
-140.90182999999999
20
111.02878000000001
10
-141.12545
20
110.61984000000001
10
-141.32753000000002
20
110.19130000000001
10
-141.50889000000001
20
109.73725000000002
10
-141.67033000000001
20
109.2516
10
-141.81226000000004
20
108.73069000000001
10
-141.93256
20
108.17992000000001
10
-142.02867000000001
20
107.6069
10
-142.09806
20
107.01934000000001
10
-142.13881000000001
20
106.42397000000001
10
-142.1514
20
105.82311000000001
10
-142.13738000000001
20
105.21808
10
-142.09796
20
104.61020000000002
10
-142.03467000000001
20
104.00142000000001
10
-141.94953000000001
20
103.39568
10
-141.84508
20
102.79725000000001
10
-141.72336000000001
20
102.21062000000002
10
-141.58559
20
101.63820000000001
10
-141.42750000000001
20
101.07351000000001
10
-141.24350999999999
20
100.50800000000001
10
-141.02800999999999
20
99.933150000000012
10
-140.77625
20
99.343259000000018
10
-140.48607999999999
20
98.744019000000009
10
-140.15629000000001
20
98.143669000000017
10
-139.78565
20
97.55063100000001
10
-139.37610000000001
20
96.975268999999997
10
-138.94298000000001
20
96.43505900000001
10
-138.72342
20
96.18420900000001
10
-138.50507999999999
20
95.949409000000003
10
-138.2902
20
95.733209000000002
10
-138.08111
20
95.537831000000011
10
-137.87973
20
95.365109000000018
10
-137.68588
20
95.213730999999996
10
-137.49904000000001
20
95.081550000000007
10
-137.31850000000003
20
94.966541000000007
10
-136.97387000000001
20
94.779691000000014
10
-136.64712000000003
20
94.636641000000012
10
-136.33449999999999
20
94.516450000000006
10
-136.03711999999999
20
94.380708999999996
10
-135.89466999999999
20
94.293541000000005
10
-135.75690000000003
20
94.186449999999994
10
-135.62401
20
94.053959000000006
10
-135.49630000000002
20
93.890799999999999
10
-135.37387000000001
20
93.693281000000013
10
-135.25652000000002
20
93.464381000000003
10
-135.14365000000001
20
93.208859000000004
10
-135.03483
20
92.931490999999994
10
-134.82776999999999
20
92.329808999999997
10
-134.63179
20
91.697050000000004
10
-133.86786000000001
20
89.219331000000011
10
-133.65459999999999
20
88.622331000000003
10
-133.41766999999999
20
88.024000000000001
10
-133.14792
20
87.412069000000002
10
-132.8357
20
86.774530999999996
10
-132.47228000000001
20
86.102041000000014
10
-132.05043000000001
20
85.396731000000003
10
-131.81564000000003
20
85.033309000000003
10
-131.56377000000001
20
84.663580999999994
10
-131.29401999999999
20
84.288168999999996
10
-131.00558000000001
20
83.907781
10
-130.37647000000001
20
83.138259000000005
10
-129.70428999999999
20
82.379718999999994
10
-129.02418
20
81.660799999999995
10
-128.37119000000001
20
81.010050000000007
10
-127.78039
20
80.448609000000019
10
-127.28763000000001
20
79.966919000000004
10
-127.08920000000001
20
79.750508999999994
10
-126.92868000000001
20
79.547618999999997
10
-126.81072
20
79.355999999999995
10
-126.73960000000001
20
79.173631
10
-126.71806000000001
20
78.998569000000003
10
-126.74092000000002
20
78.830219
10
-126.80127
20
78.668368999999998
10
-126.89210000000001
20
78.512719000000004
10
-127.00630000000001
20
78.362959000000004
10
-127.13696
20
78.21879100000001
10
-127.27706000000001
20
78.080108999999993
10
-127.41961000000002
20
77.946399999999997
10
-128.55833999999999
20
76.954280999999995
10
-128.90063000000001
20
76.687381000000002
10
-129.26954000000001
20
76.398019000000005
10
-129.65246999999999
20
76.080618999999999
10
-130.03682000000001
20
75.729691000000003
10
-130.41183000000001
20
75.341380999999998
10
-130.77424000000002
20
74.919540999999995
10
-131.12262000000001
20
74.469650000000001
10
-131.45567
20
73.997309000000001
10
-131.77256
20
73.507499999999993
10
-132.07543000000001
20
73.002341000000001
10
-132.36712
20
72.483169000000004
10
-132.65038000000001
20
71.951391000000001
10
-133.72734000000003
20
69.725341000000014
10
-134.57062000000002
20
67.795340999999993
10
-134.62620000000001
20
67.666719000000001
10
-134.67303999999999
20
67.569281000000004
10
-134.71773999999999
20
67.497550000000004
10
-134.76732000000001
20
67.446041000000008
10
-134.82828000000001
20
67.409569000000005
10
-134.90753000000001
20
67.382541000000003
10
-135.01177000000001
20
67.359780999999998
10
-135.14780999999999
20
67.335808999999998
10
-137.8648
20
66.834309000000019
10
-143.90085999999999
20
65.6524
10
-151.55681999999999
20
64.257119000000003
10
-158.35386
20
62.899241000000004
10
-158.97676999999999
20
62.761159000000006
10
-159.53923
20
62.632231000000004
10
-160.04875000000001
20
62.510818999999998
10
-160.51286000000002
20
62.395509000000004
10
-160.93928000000002
20
62.284559000000002
10
-161.33542000000003
20
62.176459000000008
10
-161.7089
20
62.06968100000001
10
-162.06734
20
61.962591000000003
10
-162.76381000000001
20
61.74039100000001
10
-163.45764
20
61.493200000000002
10
-164.17615000000001
20
61.203431000000002
10
-164.94689
20
60.853619000000009
10
-165.35908000000003
20
60.651341000000009
10
-165.7861
20
60.431269000000007
10
-166.22319000000002
20
60.195259000000007
10
-166.66534999999999
20
59.94490900000001
10
-167.10762
20
59.681969000000009
10
-167.54511000000002
20
59.408159000000005
10
-167.97284000000002
20
59.12510000000001
10
-168.38585
20
58.834531000000005
10
-168.78036000000003
20
58.537649999999999
10
-169.15658000000002
20
58.233668999999999
10
-169.51615000000001
20
57.921041000000002
10
-169.86036999999999
20
57.598669000000001
10
-170.19067000000004
20
57.26490900000001
10
-170.50857000000002
20
56.918658999999998
10
-170.81551000000002
20
56.558381000000004
10
-171.11288999999999
20
56.182769000000008
10
-171.40173999999999
20
55.791000000000004
10
-171.68164999999999
20
55.384999999999998
10
-171.95179999999999
20
54.966919000000004
10
-172.21118999999999
20
54.539290999999999
10
-172.45909
20
54.104441000000001
10
-172.69460000000004
20
53.664608999999999
10
-172.91679999999999
20
53.222349999999999
10
-173.12498000000002
20
52.779981000000006
10
-173.31863000000001
20
52.338631000000007
10
-173.49906999999999
20
51.89494100000001
10
-173.66822999999999
20
51.44445000000001
10
-173.82785000000001
20
50.98258100000001
10
-173.97963999999999
20
50.504850000000005
10
-174.12553
20
50.006608999999997
10
-174.26727
20
49.483469000000007
10
-174.40665999999999
20
48.930759000000002
10
-174.54514
20
48.345340999999998
10
-174.68261000000001
20
47.729340999999998
10
-174.81854999999999
20
47.086109
10
-174.95236000000003
20
46.419009000000003
10
-175.08362000000002
20
45.731481000000002
10
-175.21194000000003
20
45.026881000000003
10
-175.33661000000001
20
44.308569000000006
10
-175.45721
20
43.580100000000002
10
-175.57354000000001
20
42.843600000000002
10
-175.68652
20
42.097250000000003
10
-175.79736
20
41.337891000000006
10
-175.90709000000001
20
40.562680999999998
10
-176.01682
20
39.768481000000001
10
-176.12797
20
38.952319000000003
10
-176.24155999999999
20
38.111069000000001
10
-176.3587
20
37.241891000000003
0
LWPOLYLINE
5
101
100
AcDbEntity
8
0
100
AcDbPolyline
90
4
70
1
43
0.0
10
-142.84379999999999
20
33.882199999999997
10
-142.0438
20
33.882199999999997
10
-142.0438
20
36.882199999999997
10
-142.84379999999999
20
36.882199999999997
0
LWPOLYLINE
5
102
100
AcDbEntity
8
0
100
AcDbPolyline
90
4
70
1
43
0.0
10
-148.99380000000002
20
37.882199999999997
10
-145.49379999999999
20
37.882199999999997
10
-145.49379999999999
20
38.882199999999997
10
-148.99380000000002
20
38.882199999999997
0
LWPOLYLINE
5
103
100
AcDbEntity
8
0
100
AcDbPolyline
90
4
70
1
43
0.0
10
-148.74379999999999
20
31.982199999999999
10
-145.74379999999999
20
31.982199999999999
10
-145.74379999999999
20
32.782200000000003
10
-148.74379999999999
20
32.782200000000003
0
ENDSEC
0
SECTION
2
OBJECTS
0
DICTIONARY
5
C
100
AcDbDictionary
3
ACAD_GROUP
350
D
3
ACAD_MLINESTYLE
350
17
0
DICTIONARY
5
D
100
AcDbDictionary
0
DICTIONARY
5
1A
330
C
100
AcDbDictionary
0
DICTIONARY
5
17
100
AcDbDictionary
0
ENDSEC
0
EOF
