0
SECTION
2
HEADER
9
$INSUNITS
70
4
9
$ACADVER
1
AC1014
9
$HANDSEED
5
FFFF
0
ENDSEC
0
SECTION
2
TABLES
0
TABLE
2
VPORT
5
8
100
AcDbSymbolTable
0
ENDTAB
0
TABLE
2
LTYPE
5
5
100
AcDbSymbolTable
0
LTYPE
5
14
100
AcDbSymbolTableRecord
100
AcDbLinetypeTableRecord
2
BYBLOCK
70
0
0
LTYPE
5
15
100
AcDbSymbolTableRecord
100
AcDbLinetypeTableRecord
2
BYLAYER
70
0
0
ENDTAB
0
TABLE
2
LAYER
5
2
100
AcDbSymbolTable
70
2
0
LAYER
5
50
100
AcDbSymbolTableRecord
100
AcDbLayerTableRecord
2
0
70
0
6
CONTINUOUS
0
ENDTAB
0
TABLE
2
STYLE
5
3
100
AcDbSymbolTable
70
1
0
STYLE
5
11
100
AcDbSymbolTableRecord
100
AcDbTextStyleTableRecord
2
STANDARD
70
0
0
ENDTAB
0
TABLE
2
VIEW
5
6
100
AcDbSymbolTable
70
0
0
ENDTAB
0
TABLE
2
UCS
5
7
100
AcDbSymbolTable
70
0
0
ENDTAB
0
TABLE
2
APPID
5
9
100
AcDbSymbolTable
70
2
0
APPID
5
12
100
AcDbSymbolTableRecord
100
AcDbRegAppTableRecord
2
ACAD
70
0
0
ENDTAB
0
TABLE
2
DIMSTYLE
5
A
100
AcDbSymbolTable
70
1
0
ENDTAB
0
TABLE
2
BLOCK_RECORD
5
1
100
AcDbSymbolTable
70
1
0
BLOCK_RECORD
5
1F
100
AcDbSymbolTableRecord
100
AcDbBlockTableRecord
2
*MODEL_SPACE
0
BLOCK_RECORD
5
1B
100
AcDbSymbolTableRecord
100
AcDbBlockTableRecord
2
*PAPER_SPACE
0
ENDTAB
0
ENDSEC
0
SECTION
2
BLOCKS
0
BLOCK
5
20
100
AcDbEntity
100
AcDbBlockBegin
2
*MODEL_SPACE
0
ENDBLK
5
21
100
AcDbEntity
100
AcDbBlockEnd
0
BLOCK
5
1C
100
AcDbEntity
100
AcDbBlockBegin
2
*PAPER_SPACE
0
ENDBLK
5
1D
100
AcDbEntity
100
AcDbBlockEnd
0
ENDSEC
0
SECTION
2
ENTITIES
0
LWPOLYLINE
5
100
100
AcDbEntity
8
0
100
AcDbPolyline
90
505
70
1
43
0.0
10
-8.2780406000000006
20
27.977240999999999
10
-8.2665311999999993
20
26.550922000000003
10
-8.1904094000000001
20
25.233203
10
-8.0320593999999996
20
24.164491000000005
10
-7.7742000000000013
20
23.484940999999999
10
-7.5536000000000003
20
23.213903000000002
10
-7.3268313000000003
20
22.996580999999999
10
-7.0993000000000004
20
22.820781
10
-6.8764906000000003
20
22.674780999999999
10
-6.6638906000000011
20
22.546772000000001
10
-6.4669188000000011
20
22.424772000000001
10
-6.2909688000000008
20
22.296831000000005
10
-6.1416188000000007
20
22.151141000000003
10
-5.7678594000000007
20
21.565840999999999
10
-5.6399188000000002
20
21.022691000000002
10
-5.6921906
20
20.504303
10
-5.8593000000000011
20
19.993003000000002
10
-6.0756313000000004
20
19.471491
10
-6.2758094000000009
20
18.922241
10
-6.3943687000000002
20
18.327731
10
-6.3657187999999998
20
17.670352999999999
10
-6.2550812000000011
20
17.308471999999998
10
-6.0482000000000005
20
16.843430999999999
10
-5.7723500000000003
20
16.309422000000001
10
-5.4545187999999998
20
15.740663000000001
10
-5.1221405999999998
20
15.171063
10
-4.8020187999999999
20
14.634922000000001
10
-4.5216813
20
14.166372000000003
10
-4.3081687999999998
20
13.799541
10
-4.0468813000000008
20
13.316203
10
-3.7833812999999998
20
12.813663000000002
10
-3.5095906000000006
20
12.310672
10
-3.2176688000000002
20
11.825963
10
-2.8994594
20
11.378361999999999
10
-2.5472594000000006
20
10.986390999999999
10
-2.1529312000000003
20
10.668941
10
-1.7085313000000002
20
10.444680999999999
10
-1.2466812
20
10.340372
10
-0.74673124999999996
20
10.301430999999999
10
-0.23756874999999997
20
10.265922
10
0.25170937999999998
20
10.172340999999999
10
0.69230000000000003
20
9.9589813000000014
10
1.0552406000000001
20
9.5641219
10
1.3115813000000001
20
8.9262531000000003
10
1.4322813000000001
20
7.9835813
10
1.5211313000000002
20
7.314840600000001
10
1.7196313000000001
20
6.7713124999999996
10
2.0122406000000002
20
6.3295813000000001
10
2.3827186999999999
20
5.9658813000000013
10
2.8155405999999998
20
5.6569625000000006
10
3.2946094000000006
20
5.3791406000000013
10
3.8043906000000005
20
5.1089313000000001
10
4.3287187999999999
20
4.8229531000000003
10
5.1513688000000002
20
4.3243812999999998
10
5.9706813000000007
20
3.8014125000000005
10
6.7825906000000007
20
3.2981905999999999
10
7.5829906000000005
20
2.8588219000000006
10
8.3679311999999992
20
2.5272719000000006
10
9.1332000000000022
20
2.3474406000000005
10
9.8747094000000004
20
2.3635218999999998
10
10.5884
20
2.6194812999999999
10
10.884509
20
2.7987812999999999
10
11.110669
20
2.9501124999999999
10
11.29805
20
3.0660813000000005
10
11.477650000000001
20
3.1398531000000003
10
11.680881000000001
20
3.1640031000000004
10
11.938741000000002
20
3.1316906000000007
10
12.282250000000001
20
3.0356812999999998
10
12.742950000000002
20
2.8688813
10
13.14635
20
2.6255719000000006
10
13.421659000000002
20
2.2985218999999999
10
13.640131000000002
20
1.9226312999999999
10
13.872241000000001
20
1.5332531000000003
10
14.188919000000002
20
1.1653530999999999
10
14.661059000000002
20
0.85415313000000004
10
15.359508999999999
20
0.63477187000000002
10
16.355059000000001
20
0.54234062999999999
10
16.974640999999998
20
0.53000312999999999
10
17.733519000000001
20
0.51262187999999997
10
18.581931000000004
20
0.49540312000000003
10
19.470569000000001
20
0.48382187999999998
10
20.350231000000001
20
0.48298124999999997
10
21.171199999999999
20
0.49853124999999998
10
21.884359
20
0.53556250000000005
10
22.440090999999999
20
0.59957187000000001
10
22.759969000000005
20
0.66921249999999999
10
23.051059000000002
20
0.76263124999999998
10
23.313719000000003
20
0.87884063000000012
10
23.548418999999999
20
1.0172219
10
23.755600000000001
20
1.1768624999999999
10
23.935741
20
1.3569218999999999
10
24.089441000000001
20
1.5564906000000001
10
24.217069000000002
20
1.7748031
10
24.380749999999999
20
2.1180812000000007
10
24.499390999999999
20
2.3805906000000001
10
24.602409000000005
20
2.5768030999999998
10
24.719000000000001
20
2.7212812999999998
10
24.878491
20
2.8284218999999999
10
25.110358999999999
20
2.9124718999999999
10
25.443891000000001
20
2.9879031
10
25.908331000000004
20
3.0692125000000003
10
26.43815
20
3.0711906
10
26.870049999999999
20
2.9278624999999998
10
27.257600000000004
20
2.7101531000000003
10
27.654531000000002
20
2.4894031000000001
10
28.114400000000003
20
2.3365531000000002
10
28.690999999999999
20
2.3229125000000002
10
29.437909000000001
20
2.5195813
10
30.408850000000001
20
2.9975031000000003
10
31.954568999999999
20
3.8700719000000006
10
33.255231000000002
20
4.5809405999999999
10
34.319358999999999
20
5.1949624999999999
10
35.155349999999999
20
5.7769813000000001
10
35.771580999999998
20
6.3916124999999999
10
36.176431000000008
20
7.1038531000000003
10
36.378359000000003
20
7.9784719000000006
10
36.385831000000003
20
9.0802531000000002
10
36.827030999999998
20
9.4017312999999998
10
37.103408999999999
20
9.6660031000000011
10
37.271050000000002
20
9.8772219000000003
10
37.385649999999998
20
10.039981000000001
10
37.503149999999998
20
10.158253000000002
10
37.679481000000003
20
10.236431
10
37.970331000000002
20
10.278872000000002
10
38.431649999999998
20
10.289691000000001
10
39.280358999999997
20
10.405363000000001
10
40.001981000000001
20
10.745441
10
40.62735
20
11.282503000000002
10
41.187649999999998
20
11.989181
10
41.714041000000002
20
12.837822000000001
10
42.237530999999997
20
13.800991
10
42.789450000000002
20
14.851253
10
43.400500000000008
20
15.961031000000002
10
44.038899999999998
20
17.219472
10
44.320158999999997
20
18.114212999999999
10
44.335700000000003
20
18.738603000000001
10
44.176980999999998
20
19.186122000000001
10
43.935569000000001
20
19.550203000000003
10
43.703091000000001
20
19.924191
10
43.570881
20
20.401513000000001
10
43.63061900000001
20
21.075731000000001
10
43.793990999999998
20
21.695841000000001
10
43.94235900000001
20
22.081952999999999
10
44.089799999999997
20
22.295991000000001
10
44.250050000000002
20
22.399930999999999
10
44.437430999999997
20
22.455712999999999
10
44.665649999999999
20
22.525281
10
44.948731000000002
20
22.670741
10
45.300849999999997
20
22.953903000000004
10
45.52914100000001
20
23.217562000000001
10
45.707450000000009
20
23.519772
10
45.841869000000003
20
23.856653000000001
10
45.938109000000004
20
24.224540999999999
10
46.002119000000008
20
24.619641000000001
10
46.03984100000001
20
25.038131000000003
10
46.057130999999998
20
25.476353
10
46.060109000000004
20
25.930503000000002
10
70.543700000000001
20
25.982552999999999
10
71.916140999999996
20
25.967462000000001
10
73.282708999999997
20
25.960303000000003
10
74.644941000000003
20
25.959231000000003
10
76.004569000000004
20
25.962363000000003
10
77.363291000000004
20
25.967841000000004
10
78.722931000000003
20
25.973790999999999
10
80.085008999999999
20
25.978363000000005
10
81.451350000000019
20
25.979731000000005
10
81.615481000000017
20
25.980491000000004
10
81.687191000000013
20
25.955352999999999
10
81.681469000000021
20
25.885771999999999
10
81.613349999999997
20
25.753191000000001
10
81.279140999999996
20
25.026703000000001
10
81.123691000000008
20
24.394241000000001
10
81.12170900000001
20
23.829822000000004
10
81.247741000000019
20
23.307241000000005
10
81.47649100000001
20
22.800512000000005
10
81.782359000000014
20
22.283722000000004
10
82.140350000000012
20
21.730440999999999
10
82.524630999999999
20
21.114972000000002
10
84.959599999999995
20
16.877331000000002
10
85.242830999999995
20
16.373812000000001
10
85.544431000000003
20
15.854502999999999
10
85.87415
20
15.342131000000002
10
86.241741000000019
20
14.859253000000001
10
86.656949999999995
20
14.428803000000002
10
87.129541000000017
20
14.073331
10
87.669191000000012
20
13.815622000000001
10
88.285881000000018
20
13.678153000000002
10
89.060299999999998
20
13.644022
10
89.513000000000019
20
13.702613000000001
10
89.751891000000001
20
13.787881000000002
10
89.884550000000004
20
13.833831
10
90.019049999999993
20
13.774391000000001
10
90.263191000000006
20
13.543513000000003
10
90.724809000000008
20
13.074881000000001
10
91.511650000000003
20
12.302740999999999
10
91.90515000000002
20
11.757153000000001
10
92.020899999999997
20
11.215291000000001
10
91.988669000000002
20
10.661322
10
91.938219000000018
20
10.079381000000001
10
91.999491000000006
20
9.4538530999999999
10
92.302300000000002
20
8.7688219000000007
10
92.976219000000015
20
8.0084906
10
94.151369000000003
20
7.1571906000000007
10
98.355858999999995
20
4.6906718999999999
10
98.861750000000015
20
4.3864812999999998
10
99.397131000000002
20
4.0537124999999996
10
99.961468999999994
20
3.7208031000000004
10
100.55416000000001
20
3.4164531000000005
10
101.17442
20
3.1690313000000003
10
101.82174000000002
20
3.0073313000000002
10
102.49535000000002
20
2.9597906000000003
10
103.19471
20
3.0550406000000003
10
103.58669
20
3.1865625000000004
10
103.90237999999999
20
3.3533625000000002
10
104.16032000000001
20
3.5379219000000006
10
104.37909000000002
20
3.7227812999999998
10
104.57706000000002
20
3.8901906000000004
10
104.77274000000001
20
4.0229312999999998
10
104.98465000000002
20
4.1030905999999998
10
105.23123
20
4.1134531000000001
10
106.31823
20
3.9337030999999998
10
107.06971000000001
20
3.6907719000000005
10
107.56235000000001
20
3.3943531000000005
10
107.87324
20
3.0544312000000002
10
108.07929000000001
20
2.6809718999999999
10
108.25737000000001
20
2.2838219
10
108.48437000000001
20
1.8729530999999999
10
108.83725
20
1.4580405999999999
10
109.5171
20
1.0006812
10
110.36430000000001
20
0.70122187000000002
10
111.34072000000002
20
0.52977187999999997
10
112.40821
20
0.45662187999999998
10
113.52842000000001
20
0.45182188000000006
10
114.66319
20
0.48527187999999999
10
115.77442000000002
20
0.52733125000000003
10
116.82384999999999
20
0.54783124999999999
10
117.58844000000002
20
0.53685313000000001
10
118.29740000000001
20
0.51956250000000015
10
118.95690999999999
20
0.51902188000000005
10
119.57290999999999
20
0.55850312000000002
10
120.15158
20
0.66098124999999996
10
120.69907000000001
20
0.8496625000000001
10
121.22141999999999
20
1.1476719
10
121.7248
20
1.5782031000000001
10
121.89945000000002
20
1.7844813000000002
10
122.07387
20
2.0368531000000001
10
122.24395000000001
20
2.3148312999999998
10
122.40565000000001
20
2.5982219
10
122.55492000000001
20
2.8666719000000001
10
122.68765999999999
20
3.0999905999999999
10
122.79998000000001
20
3.2776906000000006
10
122.88754
20
3.3795031000000004
10
125.27892000000001
20
4.1162719000000001
10
125.58235000000002
20
4.0550813000000012
10
125.93013000000001
20
3.8632124999999999
10
126.33292
20
3.5982719000000003
10
126.80146999999999
20
3.3183125000000002
10
127.34645999999999
20
3.0809405999999999
10
127.97861
20
2.9439406000000004
10
128.70867999999999
20
2.9652031000000001
10
129.54741999999999
20
3.2024812000000002
10
137.06790000000001
20
7.5492406000000001
10
137.55808999999999
20
7.8750719
10
137.95273000000003
20
8.2518813000000009
10
138.25540000000001
20
8.6844625000000004
10
138.46983
20
9.1776312999999998
10
138.59975
20
9.7359530999999997
10
138.64867000000001
20
10.364440999999999
10
138.62031999999999
20
11.067622000000002
10
138.51837
20
11.850341
10
138.79246000000001
20
12.026672000000001
10
139.03234
20
12.208181
10
139.24722
20
12.395713000000001
10
139.4461
20
12.590172000000003
10
139.83175
20
13.002561999999999
10
140.26159000000001
20
13.451691
10
140.52737999999999
20
13.659031000000002
10
140.77724000000001
20
13.752303000000001
10
141.02755999999999
20
13.765331
10
141.29479000000001
20
13.731572
10
141.59540000000001
20
13.684552999999999
10
141.94592
20
13.657963000000002
10
142.36250000000001
20
13.685162999999999
10
142.86184
20
13.799853000000002
10
143.44272000000001
20
14.044141000000002
10
143.93755999999999
20
14.377291000000001
10
144.36252999999999
20
14.786181000000001
10
144.73415
20
15.258081000000001
10
145.06852000000003
20
15.780053000000001
10
145.38201000000001
20
16.338981
10
145.69084000000001
20
16.921913000000004
10
146.01141999999999
20
17.516121999999999
10
147.01406
20
19.248372
10
147.87817000000001
20
20.685963000000001
10
148.56717
20
21.895713000000004
10
149.04471000000001
20
22.944613
10
149.274
20
23.899471999999999
10
149.21860000000004
20
24.826903000000001
10
148.84201999999999
20
25.794031000000004
10
148.10767999999999
20
26.867540999999999
10
148.45553000000001
20
28.233271999999999
10
148.68047000000001
20
29.088922000000004
10
148.83760000000001
20
29.560753000000002
10
148.98168999999999
20
29.775791000000002
10
149.16784999999999
20
29.860441000000005
10
149.45078000000001
20
29.941522000000003
10
149.88558
20
30.145741000000005
10
150.52710999999999
20
30.599581000000001
10
151.04709
20
31.161331000000004
10
151.39739
20
31.834481
10
151.60899000000001
20
32.601663000000002
10
151.71270000000001
20
33.445653
10
151.7396
20
34.349390999999997
10
151.72040000000004
20
35.295712999999999
10
151.68634
20
36.267341000000002
10
151.66804999999999
20
37.247121999999997
10
151.67330999999999
20
37.762231
10
151.68519000000001
20
38.403002999999998
10
151.69776999999999
20
39.123472
10
151.70531
20
39.878081000000009
10
151.70187999999999
20
40.62125300000001
10
151.68161000000001
20
41.307441000000004
10
151.63885999999999
20
41.890672000000002
10
151.56769
20
42.325471999999998
10
151.31501
20
42.988180999999997
10
150.95366999999999
20
43.527453000000008
10
150.52450999999999
20
43.958663000000008
10
150.06876
20
44.297221999999998
10
149.24146000000002
20
44.757621999999998
10
148.79996
20
45.031863000000001
10
148.22602000000001
20
47.173313000000007
10
148.22084000000001
20
47.656503000000001
10
148.42086
20
48.099522000000007
10
148.7268
20
48.558022000000001
10
149.03915000000001
20
49.087681000000003
10
149.25868000000003
20
49.744381000000004
10
149.28587999999999
20
50.583722000000009
10
149.02132
20
51.661341000000007
10
148.36569
20
53.033172000000008
10
147.96594999999999
20
53.743502999999997
10
147.46584999999999
20
54.647463000000009
10
146.89778000000001
20
55.670913000000006
10
146.29488000000003
20
56.739381000000009
10
145.68961999999999
20
57.778753000000009
10
145.11500000000001
20
58.714562000000008
10
144.60355000000001
20
59.472602999999999
10
144.18833000000001
20
59.978490999999998
10
144.01824999999999
20
60.136913000000007
10
143.83004
20
60.290153000000004
10
143.62445000000002
20
60.434930999999999
10
143.40201999999999
20
60.568281000000006
10
143.16367
20
60.686852999999999
10
142.91023000000001
20
60.78758100000001
10
142.64239000000001
20
60.867213000000007
10
142.36075
20
60.922691
10
141.91178000000002
20
60.962541000000002
10
141.56263000000001
20
60.949663000000001
10
141.28915000000001
20
60.909663000000009
10
141.06718000000001
20
60.867291000000002
10
140.87279000000001
20
60.848163
10
140.68183999999999
20
60.877352999999999
10
140.47014999999999
20
60.979990999999998
10
140.21374000000003
20
61.181463000000001
10
139.37568999999999
20
61.958022
10
138.86828000000003
20
62.482503000000008
10
138.61758000000003
20
62.834703000000005
10
138.55022
20
63.094841000000002
10
138.59243000000001
20
63.342881000000006
10
138.67069000000001
20
63.658803000000006
10
138.71115
20
64.122713000000005
10
138.64013
20
64.814603000000005
10
138.43576999999999
20
65.473580999999996
10
138.09188
20
66.049880999999999
10
137.62789000000001
20
66.559890999999993
10
137.06309999999999
20
67.020363000000003
10
136.41692
20
67.447853000000009
10
135.70857000000001
20
67.858722
10
134.95731000000001
20
68.269822000000005
10
134.18274
20
68.697603000000001
10
133.87245000000001
20
68.864631000000003
10
133.61512999999999
20
68.997140999999999
10
133.40701999999999
20
69.116241000000002
10
132.92353
20
69.345152999999996
10
132.01843
20
69.677762999999999
10
129.12290999999999
20
81.797980999999993
10
124.93008000000002
20
119.57352
10
126.65395000000001
20
119.77621000000001
10
127.96290999999999
20
120.27045000000001
10
128.89187000000001
20
120.99008000000001
10
129.47594000000004
20
121.86912
10
129.75040999999999
20
122.84166
10
129.75003000000001
20
123.84164
10
129.51023000000001
20
124.80305000000001
10
129.06599
20
125.65992000000001
10
128.70814999999999
20
126.11903
10
128.31923
20
126.49057999999999
10
127.88961
20
126.78265000000002
10
127.40955
20
127.00318000000001
10
126.86967000000001
20
127.16015
10
126.26038000000001
20
127.26165000000002
10
125.57191000000002
20
127.31544
10
124.79475000000001
20
127.32969
10
65.667200000000008
20
127.32771
10
64.846231000000003
20
127.32680000000002
10
64.13916900000001
20
127.30889000000002
10
63.525680999999999
20
127.25738
10
62.985119000000005
20
127.15588
10
62.496980999999998
20
126.98763
10
62.04069100000001
20
126.73625000000001
10
61.595691000000002
20
126.38519000000001
10
61.14160900000001
20
125.91763
10
60.796581000000003
20
125.44618
10
60.53771900000001
20
124.92435999999999
10
60.365131000000005
20
124.36338000000001
10
60.279480999999997
20
123.77473000000002
10
60.280931000000002
20
123.16940000000001
10
60.369859000000005
20
122.55873000000001
10
60.546559000000002
20
121.95377999999999
10
60.811591000000007
20
121.3659
10
61.113259000000006
20
120.89917
10
61.471018999999998
20
120.51627000000002
10
61.887608999999998
20
120.21017000000001
10
62.36630000000001
20
119.97334000000001
10
62.909909000000006
20
119.79877000000002
10
63.521641000000002
20
119.67874999999999
10
64.204391000000001
20
119.60629
10
64.961130999999995
20
119.57383
10
60.639150000000008
20
87.387102999999996
10
56.289731000000003
20
86.436891000000017
10
51.8065
20
85.508391000000017
10
47.228330999999997
20
84.596812
10
42.594450000000002
20
83.697341000000009
10
37.943741000000003
20
82.805041000000003
10
33.315430999999997
20
81.914952999999997
10
28.7483
20
81.022113000000004
10
24.281609
20
80.121730999999997
10
22.066941
20
79.689302999999995
10
19.797091000000002
20
79.267381
10
17.510708999999999
20
78.827021999999999
10
15.246500000000001
20
78.339721999999995
10
13.043331
20
77.776602999999994
10
10.939750000000002
20
77.108862999999999
10
8.9747094000000001
20
76.307703000000004
10
7.1866813000000009
20
75.344680999999994
10
6.4242906
20
74.844581000000005
10
5.6429406000000002
20
74.279180999999994
10
4.8643999999999998
20
73.653503000000001
10
4.1107094000000002
20
72.972652999999994
10
3.4038812000000003
20
72.241972000000004
10
2.7658594000000001
20
71.466252999999995
10
2.2186593999999999
20
70.650913000000003
10
1.7841688
20
69.800831000000002
10
1.3871688000000002
20
68.667502999999996
10
1.1199406000000001
20
67.476803000000004
10
0.95541874999999998
20
66.242971999999995
10
0.86634062999999994
20
64.980412000000001
10
0.82535000000000014
20
63.703530999999998
10
0.80538125000000016
20
62.426341000000001
10
0.77909063000000001
20
61.163330999999999
10
0.71935000000000016
20
59.928812000000001
10
0.98590000000000011
20
47.994291000000004
10
0.99031875000000003
20
47.317712
10
0.98240000000000005
20
46.872090999999998
10
0.95495938000000002
20
46.595180999999997
10
0.90079063000000015
20
46.424722000000003
10
0.81246874999999996
20
46.298313
10
0.68293124999999999
20
46.153762
10
0.50485000000000002
20
45.928431000000003
10
0.27091874999999999
20
45.560391000000003
10
-0.8038812500000001
20
45.559702999999999
10
-1.6578594000000002
20
45.379031000000005
10
-2.3342094000000002
20
45.039180999999999
10
-2.8762188000000006
20
44.560572000000001
10
-3.3269406000000004
20
43.964221999999999
10
-3.7298094000000006
20
43.270502999999998
10
-4.1278813000000003
20
42.500352999999997
10
-4.5643500000000001
20
41.67426300000001
10
-4.9545000000000003
20
41.003171999999999
10
-5.3709312000000011
20
40.312641000000006
10
-5.7721188000000003
20
39.624103000000005
10
-6.1166188000000012
20
38.958880999999998
10
-6.3049906
20
38.450702999999997
10
-6.3900313000000004
20
37.973081000000008
10
-6.3870594000000001
20
37.522891000000001
10
-6.311468800000001
20
37.097313
10
-6.1788812000000002
20
36.693072000000001
10
-6.0043094000000004
20
36.307271999999998
10
-5.8035188000000009
20
35.936940999999997
10
-5.5917594000000008
20
35.578952999999998
10
-5.8810093999999999
20
34.280580999999998
10
-6.0054499999999997
20
33.803030999999997
10
-6.0449999999999999
20
33.660231000000003
10
-6.1664594000000008
20
33.623812000000001
10
-6.5368687999999997
20
33.466152999999998
10
-6.8284094000000009
20
33.311391
10
-7.0771313000000005
20
33.174380999999997
10
-7.2893406000000009
20
33.041722
10
-7.4713813000000009
20
32.899602999999999
10
-7.6297313000000013
20
32.734553000000005
10
-7.7702406000000002
20
32.532930999999998
10
-7.8996313000000011
20
32.281013000000002
10
-8.0239094000000009
20
31.965240999999999
10
-8.0975999999999999
20
31.506131000000003
10
-8.1761593999999995
20
30.595091
10
-8.2420000000000009
20
29.371931
0
LWPOLYLINE
5
101
100
AcDbEntity
8
0
100
AcDbPolyline
90
4
70
1
43
0.0
10
23.450000000000003
20
12.470000000000001
10
24.250000000000004
20
12.470000000000001
10
24.250000000000004
20
15.470000000000002
10
23.450000000000003
20
15.470000000000002
0
LWPOLYLINE
5
102
100
AcDbEntity
8
0
100
AcDbPolyline
90
4
70
1
43
0.0
10
17.300000000000001
20
16.469999999999999
10
20.800000000000001
20
16.469999999999999
10
20.800000000000001
20
17.469999999999999
10
17.300000000000001
20
17.469999999999999
0
LWPOLYLINE
5
103
100
AcDbEntity
8
0
100
AcDbPolyline
90
4
70
1
43
0.0
10
17.550000000000001
20
10.570000000000002
10
20.550000000000001
20
10.570000000000002
10
20.550000000000001
20
11.370000000000001
10
17.550000000000001
20
11.370000000000001
0
ENDSEC
0
SECTION
2
OBJECTS
0
DICTIONARY
5
C
100
AcDbDictionary
3
ACAD_GROUP
350
D
3
ACAD_MLINESTYLE
350
17
0
DICTIONARY
5
D
100
AcDbDictionary
0
DICTIONARY
5
1A
330
C
100
AcDbDictionary
0
DICTIONARY
5
17
100
AcDbDictionary
0
ENDSEC
0
EOF
